<mxfile host="Electron" agent="Mozilla/5.0 (Macintosh; Intel Mac OS X 10_15_7) AppleWebKit/537.36 (KHTML, like Gecko) draw.io/24.7.17 Chrome/128.0.6613.36 Electron/32.0.1 Safari/537.36" version="24.7.17">
  <diagram name="Page-1" id="tBIAlemMxgHySIvlNtww">
    <mxGraphModel dx="437" dy="316" grid="1" gridSize="10" guides="1" tooltips="1" connect="1" arrows="1" fold="1" page="1" pageScale="1" pageWidth="1920" pageHeight="1200" math="0" shadow="0">
      <root>
        <mxCell id="0" />
        <mxCell id="1" parent="0" />
        <mxCell id="0AgmWwhCZB2gRe05MUAh-36" value="clk" style="text;html=1;align=center;verticalAlign=middle;resizable=0;points=[];autosize=1;strokeColor=none;fillColor=none;" vertex="1" parent="1">
          <mxGeometry x="129" y="162" width="40" height="30" as="geometry" />
        </mxCell>
        <mxCell id="0AgmWwhCZB2gRe05MUAh-2" value="&lt;p style=&quot;line-height: 0%;&quot;&gt;&lt;b&gt;DFF&lt;/b&gt;&lt;/p&gt;&lt;p&gt;&lt;/p&gt;" style="rounded=1;whiteSpace=wrap;html=1;" vertex="1" parent="1">
          <mxGeometry x="120" y="100" width="60" height="60" as="geometry" />
        </mxCell>
        <mxCell id="0AgmWwhCZB2gRe05MUAh-3" value="" style="triangle;whiteSpace=wrap;html=1;rotation=-90;" vertex="1" parent="1">
          <mxGeometry x="144.5" y="147" width="11" height="15" as="geometry" />
        </mxCell>
        <mxCell id="0AgmWwhCZB2gRe05MUAh-6" value="" style="endArrow=classic;html=1;rounded=0;endSize=4;" edge="1" parent="1">
          <mxGeometry width="50" height="50" relative="1" as="geometry">
            <mxPoint x="100" y="120" as="sourcePoint" />
            <mxPoint x="120" y="120" as="targetPoint" />
          </mxGeometry>
        </mxCell>
        <mxCell id="0AgmWwhCZB2gRe05MUAh-7" value="pb" style="text;html=1;align=center;verticalAlign=middle;resizable=0;points=[];autosize=1;strokeColor=none;fillColor=none;" vertex="1" parent="1">
          <mxGeometry x="70" y="104" width="40" height="30" as="geometry" />
        </mxCell>
        <mxCell id="0AgmWwhCZB2gRe05MUAh-8" value="D" style="text;html=1;align=center;verticalAlign=middle;resizable=0;points=[];autosize=1;strokeColor=none;fillColor=none;fontColor=#999999;" vertex="1" parent="1">
          <mxGeometry x="112" y="104" width="30" height="30" as="geometry" />
        </mxCell>
        <mxCell id="0AgmWwhCZB2gRe05MUAh-9" value="&lt;p style=&quot;line-height: 0%;&quot;&gt;&lt;b&gt;DFF&lt;/b&gt;&lt;/p&gt;&lt;p&gt;&lt;/p&gt;" style="rounded=1;whiteSpace=wrap;html=1;" vertex="1" parent="1">
          <mxGeometry x="200" y="100" width="60" height="60" as="geometry" />
        </mxCell>
        <mxCell id="0AgmWwhCZB2gRe05MUAh-10" value="" style="triangle;whiteSpace=wrap;html=1;rotation=-90;" vertex="1" parent="1">
          <mxGeometry x="224.5" y="147" width="11" height="15" as="geometry" />
        </mxCell>
        <mxCell id="0AgmWwhCZB2gRe05MUAh-12" value="" style="endArrow=classic;html=1;rounded=0;endSize=4;" edge="1" parent="1">
          <mxGeometry width="50" height="50" relative="1" as="geometry">
            <mxPoint x="180" y="120" as="sourcePoint" />
            <mxPoint x="200" y="120" as="targetPoint" />
          </mxGeometry>
        </mxCell>
        <mxCell id="0AgmWwhCZB2gRe05MUAh-14" value="&lt;p style=&quot;line-height: 0%;&quot;&gt;&lt;b&gt;DFF&lt;/b&gt;&lt;/p&gt;&lt;p&gt;&lt;/p&gt;" style="rounded=1;whiteSpace=wrap;html=1;" vertex="1" parent="1">
          <mxGeometry x="280" y="100" width="60" height="60" as="geometry" />
        </mxCell>
        <mxCell id="0AgmWwhCZB2gRe05MUAh-15" value="" style="triangle;whiteSpace=wrap;html=1;rotation=-90;" vertex="1" parent="1">
          <mxGeometry x="304.5" y="147" width="11" height="15" as="geometry" />
        </mxCell>
        <mxCell id="0AgmWwhCZB2gRe05MUAh-17" value="" style="endArrow=classic;html=1;rounded=0;endSize=4;" edge="1" parent="1">
          <mxGeometry width="50" height="50" relative="1" as="geometry">
            <mxPoint x="260" y="120" as="sourcePoint" />
            <mxPoint x="280" y="120" as="targetPoint" />
          </mxGeometry>
        </mxCell>
        <mxCell id="0AgmWwhCZB2gRe05MUAh-19" value="&lt;p style=&quot;line-height: 0%;&quot;&gt;&lt;b&gt;DFF&lt;/b&gt;&lt;/p&gt;&lt;p&gt;&lt;/p&gt;" style="rounded=1;whiteSpace=wrap;html=1;" vertex="1" parent="1">
          <mxGeometry x="360" y="100" width="60" height="60" as="geometry" />
        </mxCell>
        <mxCell id="0AgmWwhCZB2gRe05MUAh-20" value="" style="triangle;whiteSpace=wrap;html=1;rotation=-90;" vertex="1" parent="1">
          <mxGeometry x="384.5" y="147" width="11" height="15" as="geometry" />
        </mxCell>
        <mxCell id="0AgmWwhCZB2gRe05MUAh-22" value="" style="endArrow=classic;html=1;rounded=0;endSize=4;" edge="1" parent="1">
          <mxGeometry width="50" height="50" relative="1" as="geometry">
            <mxPoint x="340" y="120" as="sourcePoint" />
            <mxPoint x="360" y="120" as="targetPoint" />
          </mxGeometry>
        </mxCell>
        <mxCell id="0AgmWwhCZB2gRe05MUAh-24" value="" style="endArrow=none;html=1;rounded=0;entryX=0;entryY=0.875;entryDx=0;entryDy=0;entryPerimeter=0;edgeStyle=orthogonalEdgeStyle;endFill=0;" edge="1" parent="1" target="0AgmWwhCZB2gRe05MUAh-26">
          <mxGeometry width="50" height="50" relative="1" as="geometry">
            <mxPoint x="420" y="120" as="sourcePoint" />
            <mxPoint x="440" y="120" as="targetPoint" />
            <Array as="points">
              <mxPoint x="440" y="120" />
            </Array>
          </mxGeometry>
        </mxCell>
        <mxCell id="0AgmWwhCZB2gRe05MUAh-25" value="pb_d" style="text;html=1;align=center;verticalAlign=middle;resizable=0;points=[];autosize=1;strokeColor=none;fillColor=none;" vertex="1" parent="1">
          <mxGeometry x="492" y="49" width="50" height="30" as="geometry" />
        </mxCell>
        <mxCell id="0AgmWwhCZB2gRe05MUAh-26" value="" style="verticalLabelPosition=bottom;shadow=0;dashed=0;align=center;html=1;verticalAlign=top;shape=mxgraph.electrical.logic_gates.logic_gate;operation=and;numInputs=4;" vertex="1" parent="1">
          <mxGeometry x="440" y="45" width="60" height="40" as="geometry" />
        </mxCell>
        <mxCell id="0AgmWwhCZB2gRe05MUAh-28" value="" style="endArrow=none;html=1;rounded=0;entryX=0;entryY=0.625;entryDx=0;entryDy=0;entryPerimeter=0;edgeStyle=orthogonalEdgeStyle;endFill=0;" edge="1" parent="1" target="0AgmWwhCZB2gRe05MUAh-26">
          <mxGeometry width="50" height="50" relative="1" as="geometry">
            <mxPoint x="350" y="120" as="sourcePoint" />
            <mxPoint x="450" y="90" as="targetPoint" />
            <Array as="points">
              <mxPoint x="350" y="70" />
            </Array>
          </mxGeometry>
        </mxCell>
        <mxCell id="0AgmWwhCZB2gRe05MUAh-29" value="" style="endArrow=none;html=1;rounded=0;entryX=0;entryY=0.625;entryDx=0;entryDy=0;entryPerimeter=0;edgeStyle=orthogonalEdgeStyle;endFill=0;" edge="1" parent="1">
          <mxGeometry width="50" height="50" relative="1" as="geometry">
            <mxPoint x="270" y="120" as="sourcePoint" />
            <mxPoint x="440" y="60" as="targetPoint" />
            <Array as="points">
              <mxPoint x="270" y="90" />
              <mxPoint x="270" y="60" />
            </Array>
          </mxGeometry>
        </mxCell>
        <mxCell id="0AgmWwhCZB2gRe05MUAh-30" value="" style="endArrow=none;html=1;rounded=0;entryX=0;entryY=0.625;entryDx=0;entryDy=0;entryPerimeter=0;edgeStyle=orthogonalEdgeStyle;endFill=0;" edge="1" parent="1">
          <mxGeometry width="50" height="50" relative="1" as="geometry">
            <mxPoint x="190" y="120" as="sourcePoint" />
            <mxPoint x="440" y="50" as="targetPoint" />
            <Array as="points">
              <mxPoint x="190" y="50" />
            </Array>
          </mxGeometry>
        </mxCell>
        <mxCell id="0AgmWwhCZB2gRe05MUAh-5" value="Q" style="text;html=1;align=center;verticalAlign=middle;resizable=0;points=[];autosize=1;strokeColor=none;fillColor=none;fontColor=#999999;" vertex="1" parent="1">
          <mxGeometry x="157" y="104" width="30" height="30" as="geometry" />
        </mxCell>
        <mxCell id="0AgmWwhCZB2gRe05MUAh-11" value="Q" style="text;html=1;align=center;verticalAlign=middle;resizable=0;points=[];autosize=1;strokeColor=none;fillColor=none;fontColor=#999999;" vertex="1" parent="1">
          <mxGeometry x="237" y="104" width="30" height="30" as="geometry" />
        </mxCell>
        <mxCell id="0AgmWwhCZB2gRe05MUAh-13" value="D" style="text;html=1;align=center;verticalAlign=middle;resizable=0;points=[];autosize=1;strokeColor=none;fillColor=none;fontColor=#999999;" vertex="1" parent="1">
          <mxGeometry x="192" y="104" width="30" height="30" as="geometry" />
        </mxCell>
        <mxCell id="0AgmWwhCZB2gRe05MUAh-16" value="Q" style="text;html=1;align=center;verticalAlign=middle;resizable=0;points=[];autosize=1;strokeColor=none;fillColor=none;fontColor=#999999;" vertex="1" parent="1">
          <mxGeometry x="317" y="104" width="30" height="30" as="geometry" />
        </mxCell>
        <mxCell id="0AgmWwhCZB2gRe05MUAh-18" value="D" style="text;html=1;align=center;verticalAlign=middle;resizable=0;points=[];autosize=1;strokeColor=none;fillColor=none;fontColor=#999999;" vertex="1" parent="1">
          <mxGeometry x="272" y="104" width="30" height="30" as="geometry" />
        </mxCell>
        <mxCell id="0AgmWwhCZB2gRe05MUAh-21" value="Q" style="text;html=1;align=center;verticalAlign=middle;resizable=0;points=[];autosize=1;strokeColor=none;fillColor=none;fontColor=#999999;" vertex="1" parent="1">
          <mxGeometry x="397" y="104" width="30" height="30" as="geometry" />
        </mxCell>
        <mxCell id="0AgmWwhCZB2gRe05MUAh-23" value="D" style="text;html=1;align=center;verticalAlign=middle;resizable=0;points=[];autosize=1;strokeColor=none;fillColor=none;fontColor=#999999;" vertex="1" parent="1">
          <mxGeometry x="352" y="104" width="30" height="30" as="geometry" />
        </mxCell>
        <mxCell id="0AgmWwhCZB2gRe05MUAh-31" value="" style="shape=ellipse;fillColor=#000000;strokeColor=none;html=1;sketch=0;fontFamily=Helvetica;fontSize=11;fontColor=default;labelBackgroundColor=default;" vertex="1" parent="1">
          <mxGeometry x="187" y="117" width="6" height="6" as="geometry" />
        </mxCell>
        <mxCell id="0AgmWwhCZB2gRe05MUAh-32" value="" style="shape=ellipse;fillColor=#000000;strokeColor=none;html=1;sketch=0;fontFamily=Helvetica;fontSize=11;fontColor=default;labelBackgroundColor=default;" vertex="1" parent="1">
          <mxGeometry x="267" y="117" width="6" height="6" as="geometry" />
        </mxCell>
        <mxCell id="0AgmWwhCZB2gRe05MUAh-33" value="" style="shape=ellipse;fillColor=#000000;strokeColor=none;html=1;sketch=0;fontFamily=Helvetica;fontSize=11;fontColor=default;labelBackgroundColor=default;" vertex="1" parent="1">
          <mxGeometry x="347" y="117" width="6" height="6" as="geometry" />
        </mxCell>
        <mxCell id="0AgmWwhCZB2gRe05MUAh-34" value="" style="endArrow=none;html=1;rounded=0;endFill=0;" edge="1" parent="1">
          <mxGeometry width="50" height="50" relative="1" as="geometry">
            <mxPoint x="150" y="170" as="sourcePoint" />
            <mxPoint x="150" y="160" as="targetPoint" />
          </mxGeometry>
        </mxCell>
        <mxCell id="0AgmWwhCZB2gRe05MUAh-37" value="clk" style="text;html=1;align=center;verticalAlign=middle;resizable=0;points=[];autosize=1;strokeColor=none;fillColor=none;" vertex="1" parent="1">
          <mxGeometry x="209" y="162" width="40" height="30" as="geometry" />
        </mxCell>
        <mxCell id="0AgmWwhCZB2gRe05MUAh-38" value="" style="endArrow=none;html=1;rounded=0;endFill=0;" edge="1" parent="1">
          <mxGeometry width="50" height="50" relative="1" as="geometry">
            <mxPoint x="230" y="170" as="sourcePoint" />
            <mxPoint x="230" y="160" as="targetPoint" />
          </mxGeometry>
        </mxCell>
        <mxCell id="0AgmWwhCZB2gRe05MUAh-39" value="clk" style="text;html=1;align=center;verticalAlign=middle;resizable=0;points=[];autosize=1;strokeColor=none;fillColor=none;" vertex="1" parent="1">
          <mxGeometry x="289" y="162" width="40" height="30" as="geometry" />
        </mxCell>
        <mxCell id="0AgmWwhCZB2gRe05MUAh-40" value="" style="endArrow=none;html=1;rounded=0;endFill=0;" edge="1" parent="1">
          <mxGeometry width="50" height="50" relative="1" as="geometry">
            <mxPoint x="310" y="170" as="sourcePoint" />
            <mxPoint x="310" y="160" as="targetPoint" />
          </mxGeometry>
        </mxCell>
        <mxCell id="0AgmWwhCZB2gRe05MUAh-41" value="clk" style="text;html=1;align=center;verticalAlign=middle;resizable=0;points=[];autosize=1;strokeColor=none;fillColor=none;" vertex="1" parent="1">
          <mxGeometry x="369" y="162" width="40" height="30" as="geometry" />
        </mxCell>
        <mxCell id="0AgmWwhCZB2gRe05MUAh-42" value="" style="endArrow=none;html=1;rounded=0;endFill=0;" edge="1" parent="1">
          <mxGeometry width="50" height="50" relative="1" as="geometry">
            <mxPoint x="390" y="170" as="sourcePoint" />
            <mxPoint x="390" y="160" as="targetPoint" />
          </mxGeometry>
        </mxCell>
        <mxCell id="0AgmWwhCZB2gRe05MUAh-43" value="clk" style="text;html=1;align=center;verticalAlign=middle;resizable=0;points=[];autosize=1;strokeColor=none;fillColor=none;" vertex="1" parent="1">
          <mxGeometry x="199" y="362" width="40" height="30" as="geometry" />
        </mxCell>
        <mxCell id="0AgmWwhCZB2gRe05MUAh-44" value="&lt;p style=&quot;line-height: 0%;&quot;&gt;&lt;b&gt;DFF&lt;/b&gt;&lt;/p&gt;&lt;p&gt;&lt;/p&gt;" style="rounded=1;whiteSpace=wrap;html=1;" vertex="1" parent="1">
          <mxGeometry x="190" y="300" width="60" height="60" as="geometry" />
        </mxCell>
        <mxCell id="0AgmWwhCZB2gRe05MUAh-45" value="" style="triangle;whiteSpace=wrap;html=1;rotation=-90;" vertex="1" parent="1">
          <mxGeometry x="214.5" y="347" width="11" height="15" as="geometry" />
        </mxCell>
        <mxCell id="0AgmWwhCZB2gRe05MUAh-46" value="" style="endArrow=classic;html=1;rounded=0;endSize=4;" edge="1" parent="1">
          <mxGeometry width="50" height="50" relative="1" as="geometry">
            <mxPoint x="150" y="320" as="sourcePoint" />
            <mxPoint x="190" y="320" as="targetPoint" />
          </mxGeometry>
        </mxCell>
        <mxCell id="0AgmWwhCZB2gRe05MUAh-47" value="D" style="text;html=1;align=center;verticalAlign=middle;resizable=0;points=[];autosize=1;strokeColor=none;fillColor=none;fontColor=#999999;" vertex="1" parent="1">
          <mxGeometry x="182" y="304" width="30" height="30" as="geometry" />
        </mxCell>
        <mxCell id="0AgmWwhCZB2gRe05MUAh-48" value="Q" style="text;html=1;align=center;verticalAlign=middle;resizable=0;points=[];autosize=1;strokeColor=none;fillColor=none;fontColor=#999999;" vertex="1" parent="1">
          <mxGeometry x="227" y="304" width="30" height="30" as="geometry" />
        </mxCell>
        <mxCell id="0AgmWwhCZB2gRe05MUAh-50" value="" style="endArrow=none;html=1;rounded=0;endFill=0;" edge="1" parent="1">
          <mxGeometry width="50" height="50" relative="1" as="geometry">
            <mxPoint x="220" y="370" as="sourcePoint" />
            <mxPoint x="220" y="360" as="targetPoint" />
          </mxGeometry>
        </mxCell>
        <mxCell id="0AgmWwhCZB2gRe05MUAh-62" style="edgeStyle=orthogonalEdgeStyle;rounded=0;orthogonalLoop=1;jettySize=auto;html=1;exitX=1;exitY=0.5;exitDx=0;exitDy=0;exitPerimeter=0;entryX=0;entryY=0.333;entryDx=0;entryDy=0;entryPerimeter=0;" edge="1" parent="1" source="0AgmWwhCZB2gRe05MUAh-51" target="0AgmWwhCZB2gRe05MUAh-57">
          <mxGeometry relative="1" as="geometry">
            <mxPoint x="359.9701492537313" y="320" as="targetPoint" />
            <Array as="points">
              <mxPoint x="360" y="320" />
            </Array>
          </mxGeometry>
        </mxCell>
        <mxCell id="0AgmWwhCZB2gRe05MUAh-51" value="" style="verticalLabelPosition=bottom;shadow=0;dashed=0;align=center;html=1;verticalAlign=top;shape=mxgraph.electrical.logic_gates.logic_gate;operation=and;numInputs=2;" vertex="1" parent="1">
          <mxGeometry x="300" y="270" width="60" height="40" as="geometry" />
        </mxCell>
        <mxCell id="0AgmWwhCZB2gRe05MUAh-52" value="" style="endArrow=none;html=1;rounded=0;endSize=4;endFill=0;" edge="1" parent="1">
          <mxGeometry width="50" height="50" relative="1" as="geometry">
            <mxPoint x="250" y="320" as="sourcePoint" />
            <mxPoint x="270" y="320" as="targetPoint" />
          </mxGeometry>
        </mxCell>
        <mxCell id="0AgmWwhCZB2gRe05MUAh-53" value="" style="verticalLabelPosition=bottom;shadow=0;dashed=0;align=center;html=1;verticalAlign=top;shape=mxgraph.electrical.logic_gates.inverter_2" vertex="1" parent="1">
          <mxGeometry x="270" y="312.5" width="25" height="15" as="geometry" />
        </mxCell>
        <mxCell id="0AgmWwhCZB2gRe05MUAh-54" style="edgeStyle=orthogonalEdgeStyle;rounded=0;orthogonalLoop=1;jettySize=auto;html=1;exitX=1;exitY=0.5;exitDx=0;exitDy=0;exitPerimeter=0;entryX=0;entryY=0.75;entryDx=0;entryDy=0;entryPerimeter=0;endArrow=none;endFill=0;" edge="1" parent="1" source="0AgmWwhCZB2gRe05MUAh-53" target="0AgmWwhCZB2gRe05MUAh-51">
          <mxGeometry relative="1" as="geometry" />
        </mxCell>
        <mxCell id="0AgmWwhCZB2gRe05MUAh-55" style="edgeStyle=orthogonalEdgeStyle;rounded=0;orthogonalLoop=1;jettySize=auto;html=1;entryX=0;entryY=0.25;entryDx=0;entryDy=0;entryPerimeter=0;endArrow=none;endFill=0;" edge="1" parent="1" target="0AgmWwhCZB2gRe05MUAh-51">
          <mxGeometry relative="1" as="geometry">
            <mxPoint x="170" y="320" as="sourcePoint" />
            <mxPoint x="187" y="270" as="targetPoint" />
            <Array as="points">
              <mxPoint x="170" y="280" />
            </Array>
          </mxGeometry>
        </mxCell>
        <mxCell id="0AgmWwhCZB2gRe05MUAh-56" value="clk" style="text;html=1;align=center;verticalAlign=middle;resizable=0;points=[];autosize=1;strokeColor=none;fillColor=none;" vertex="1" parent="1">
          <mxGeometry x="389" y="362" width="40" height="30" as="geometry" />
        </mxCell>
        <mxCell id="0AgmWwhCZB2gRe05MUAh-57" value="&lt;p style=&quot;line-height: 0%;&quot;&gt;&lt;b&gt;DFF&lt;/b&gt;&lt;/p&gt;&lt;p&gt;&lt;/p&gt;" style="rounded=1;whiteSpace=wrap;html=1;" vertex="1" parent="1">
          <mxGeometry x="380" y="300" width="60" height="60" as="geometry" />
        </mxCell>
        <mxCell id="0AgmWwhCZB2gRe05MUAh-58" value="" style="triangle;whiteSpace=wrap;html=1;rotation=-90;" vertex="1" parent="1">
          <mxGeometry x="404.5" y="347" width="11" height="15" as="geometry" />
        </mxCell>
        <mxCell id="0AgmWwhCZB2gRe05MUAh-59" value="Q" style="text;html=1;align=center;verticalAlign=middle;resizable=0;points=[];autosize=1;strokeColor=none;fillColor=none;fontColor=#999999;" vertex="1" parent="1">
          <mxGeometry x="417" y="304" width="30" height="30" as="geometry" />
        </mxCell>
        <mxCell id="0AgmWwhCZB2gRe05MUAh-60" value="" style="endArrow=none;html=1;rounded=0;endFill=0;" edge="1" parent="1">
          <mxGeometry width="50" height="50" relative="1" as="geometry">
            <mxPoint x="410" y="370" as="sourcePoint" />
            <mxPoint x="410" y="360" as="targetPoint" />
          </mxGeometry>
        </mxCell>
        <mxCell id="0AgmWwhCZB2gRe05MUAh-61" value="" style="endArrow=none;html=1;rounded=0;endSize=4;endFill=0;" edge="1" parent="1">
          <mxGeometry width="50" height="50" relative="1" as="geometry">
            <mxPoint x="440" y="320" as="sourcePoint" />
            <mxPoint x="460" y="320" as="targetPoint" />
          </mxGeometry>
        </mxCell>
        <mxCell id="0AgmWwhCZB2gRe05MUAh-63" value="pb_d" style="text;html=1;align=center;verticalAlign=middle;resizable=0;points=[];autosize=1;strokeColor=none;fillColor=none;" vertex="1" parent="1">
          <mxGeometry x="106" y="304" width="50" height="30" as="geometry" />
        </mxCell>
        <mxCell id="0AgmWwhCZB2gRe05MUAh-64" value="pb_1p" style="text;html=1;align=center;verticalAlign=middle;resizable=0;points=[];autosize=1;strokeColor=none;fillColor=none;" vertex="1" parent="1">
          <mxGeometry x="451" y="304" width="60" height="30" as="geometry" />
        </mxCell>
        <mxCell id="0AgmWwhCZB2gRe05MUAh-67" value="D" style="text;html=1;align=center;verticalAlign=middle;resizable=0;points=[];autosize=1;strokeColor=none;fillColor=none;fontColor=#999999;" vertex="1" parent="1">
          <mxGeometry x="371.5" y="304" width="30" height="30" as="geometry" />
        </mxCell>
      </root>
    </mxGraphModel>
  </diagram>
</mxfile>
